<svg width="20" height="20" viewBox="0 0 20 20" fill="none" xmlns="http://www.w3.org/2000/svg">
<path fill-rule="evenodd" clip-rule="evenodd" d="M1.875 10C1.875 5.51269 5.51269 1.875 10 1.875C14.4873 1.875 18.125 5.51269 18.125 10C18.125 14.4873 14.4873 18.125 10 18.125C5.51269 18.125 1.875 14.4873 1.875 10ZM6.64139 6.64139C6.88547 6.39731 7.2812 6.39731 7.52528 6.64139L10 9.11612L12.4747 6.64139C12.7188 6.39731 13.1145 6.39731 13.3586 6.64139C13.6027 6.88547 13.6027 7.2812 13.3586 7.52528L10.8839 10L13.3586 12.4747C13.6027 12.7188 13.6027 13.1145 13.3586 13.3586C13.1145 13.6027 12.7188 13.6027 12.4747 13.3586L10 10.8839L7.52528 13.3586C7.2812 13.6027 6.88547 13.6027 6.64139 13.3586C6.39731 13.1145 6.39731 12.7188 6.64139 12.4747L9.11612 10L6.64139 7.52528C6.39731 7.2812 6.39731 6.88547 6.64139 6.64139Z" fill="#363A4D"/>
</svg>
