<svg width="20" height="20" viewBox="0 0 20 20" fill="none" xmlns="http://www.w3.org/2000/svg">
<path fill-rule="evenodd" clip-rule="evenodd" d="M10.8873 1.90447L16.5523 5.18161C17.1018 5.49955 17.4401 6.08683 17.4401 6.72221V13.2765C17.4401 13.9119 17.1013 14.4991 16.5523 14.8171L10.8873 18.0942C10.3382 18.4122 9.66119 18.4122 9.11211 18.0942L3.44717 14.8171C2.89809 14.4991 2.55981 13.9119 2.55981 13.2765V6.72221C2.55981 6.08683 2.89809 5.49955 3.44717 5.18161L9.11211 1.90447C9.66119 1.58653 10.3382 1.58653 10.8873 1.90447ZM6.20055 12.0306C6.7908 12.6204 7.575 12.9453 8.40928 12.9453C9.24357 12.9453 10.0283 12.6204 10.618 12.0306L12.0316 10.617C12.2757 10.373 12.2757 9.97763 12.0316 9.7336C11.7876 9.48956 11.3923 9.48956 11.1482 9.7336L9.73462 11.1472C9.38047 11.5014 8.91025 11.6963 8.40928 11.6963C7.90831 11.6963 7.4381 11.5014 7.08395 11.1472C6.35332 10.4166 6.35332 9.22767 7.08395 8.49704L7.61418 7.96681C7.85822 7.72277 7.85822 7.32745 7.61418 7.08342C7.37014 6.83938 6.97483 6.83938 6.73079 7.08342L6.20055 7.61365C4.98285 8.83136 4.98285 10.8129 6.20055 12.0306ZM12.3843 12.9135C12.5063 13.0355 12.6665 13.0965 12.8263 13.0965H12.8258C12.986 13.0965 13.1457 13.0355 13.2677 12.9135L13.7979 12.3833C15.0157 11.1656 15.0157 9.18402 13.7979 7.96632C12.5802 6.74862 10.5987 6.74862 9.38098 7.96632L7.96735 9.37995C7.72331 9.62399 7.72331 10.0193 7.96735 10.2633C8.21139 10.5074 8.60671 10.5074 8.85075 10.2633L10.2644 8.84971C10.995 8.11909 12.1839 8.11909 12.9146 8.84971C13.6452 9.58034 13.6452 10.7693 12.9146 11.4999L12.3843 12.0301C12.1403 12.2742 12.1403 12.6695 12.3843 12.9135Z" fill="white"/>
</svg>
