<svg width="18" height="18" viewBox="0 0 18 18" fill="none" xmlns="http://www.w3.org/2000/svg">
<path fill-rule="evenodd" clip-rule="evenodd" d="M9 0.875C4.51269 0.875 0.875 4.51269 0.875 9C0.875 13.4873 4.51269 17.125 9 17.125C13.4873 17.125 17.125 13.4873 17.125 9C17.125 4.51269 13.4873 0.875 9 0.875ZM9.83333 12.3333C9.83333 12.7936 9.46024 13.1667 9 13.1667C8.53976 13.1667 8.16667 12.7936 8.16667 12.3333C8.16667 11.8731 8.53976 11.5 9 11.5C9.46024 11.5 9.83333 11.8731 9.83333 12.3333ZM9.625 4.83333C9.625 4.48816 9.34518 4.20833 9 4.20833C8.65482 4.20833 8.375 4.48816 8.375 4.83333V9.83333C8.375 10.1785 8.65482 10.4583 9 10.4583C9.34518 10.4583 9.625 10.1785 9.625 9.83333V4.83333Z" fill="#ED7C09"/>
</svg>
